<svg id="Capa_1" enable-background="new 0 0 512 512" height="512" viewBox="0 0 512 512" width="512" xmlns="http://www.w3.org/2000/svg"><g><path d="m422 362h-30v30h-30v30h30v30h30v-30h30v-30h-30z"/><path d="m407 302c-14.693 0-28.687 3.039-41.396 8.512-33.793-60.948-98.334-100.512-170.604-100.512-107.523 0-195 87.477-195 195v45h311.215c16.458 36.517 53.201 62 95.785 62 57.897 0 105-47.103 105-105s-47.103-105-105-105zm-377 118v-15c0-90.981 74.019-165 165-165 60.39 0 116.282 33.557 144.99 86.226-23.195 19.276-37.99 48.329-37.99 80.774 0 4.401.276 8.739.804 13zm377 62c-41.355 0-75-33.645-75-75s33.645-75 75-75 75 33.645 75 75-33.645 75-75 75z"/><path d="m300 105c0-57.897-47.103-105-105-105s-105 47.103-105 105 47.103 105 105 105 105-47.103 105-105zm-105 75c-41.355 0-75-33.645-75-75s33.645-75 75-75 75 33.645 75 75-33.645 75-75 75z"/></g></svg>