<svg id="Capa_1" enable-background="new 0 0 512 512" height="512" viewBox="0 0 512 512" width="512" xmlns="http://www.w3.org/2000/svg"><g><path d="m272 211c49.626 0 90-40.374 90-90s-40.374-90-90-90c-23.004 0-44.016 8.68-59.943 22.93-16.349-14.729-37.472-22.93-60.057-22.93-49.626 0-90 40.374-90 90s40.374 90 90 90c22.585 0 43.708-8.201 60.057-22.93 15.927 14.25 36.939 22.93 59.943 22.93zm0-150c33.084 0 60 26.916 60 60s-26.916 60-60 60-60-26.916-60-60 26.916-60 60-60zm-180 60c0-33.084 26.916-60 60-60 15.628 0 30.206 5.898 41.27 16.438-7.176 12.916-11.27 27.769-11.27 43.562s4.094 30.646 11.27 43.562c-11.064 10.54-25.642 16.438-41.27 16.438-33.084 0-60-26.916-60-60z"/><path d="m420.65 271.887c-6.624-34.629-37.12-60.887-73.65-60.887h-75c-38.219 0-98.271 0-120 0h-77c-41.355 0-75 33.645-75 75v105h303.076c7.301 50.816 51.119 90 103.924 90 57.897 0 105-47.103 105-105 0-53.272-39.878-97.402-91.35-104.113zm-390.65 89.113v-75c0-24.813 20.187-45 45-45h62.041c-9.438 12.544-15.041 28.129-15.041 45v75zm122-75c0-24.813 20.187-45 45-45h150c20.075 0 37.116 13.215 42.895 31.401-44.92 7.392-80.323 43.388-86.819 88.599h-151.076zm255 165c-41.355 0-75-33.645-75-75s33.645-75 75-75 75 33.645 75 75-33.645 75-75 75z"/><path d="m422 331h-30v30h-30v30h30v30h30v-30h30v-30h-30z"/></g></svg>