<svg id="Capa_1" enable-background="new 0 0 512 512" height="512" viewBox="0 0 512 512" width="512" xmlns="http://www.w3.org/2000/svg"><path d="m256 0c-140.957 0-256 115.048-256 256 0 140.957 115.049 256 256 256 140.959 0 256-115.049 256-256 0-140.959-115.049-256-256-256zm0 482c-124.617 0-226-101.383-226-226s101.383-226 226-226 226 101.383 226 226-101.383 226-226 226z"/><path d="m319.64 128.721-63.64 63.639-63.64-63.64-63.64 63.64 63.64 63.64-63.64 63.64 63.64 63.64 63.64-63.64 63.64 63.64 63.64-63.64-63.64-63.64 63.64-63.64zm21.214 190.919-21.214 21.213-63.64-63.64-63.64 63.64-21.214-21.213 63.64-63.64-63.64-63.64 21.214-21.213 63.64 63.64 63.64-63.64 21.214 21.213-63.64 63.64z"/></svg>