<svg xmlns="http://www.w3.org/2000/svg" height="512pt" version="1.1" viewBox="0 -59 512 512" width="512pt">
<g id="surface1">
<path d="M 399.671875 0 C 342.820312 0 295.679688 42.460938 288.328125 97.328125 L 0 97.328125 L 0 393.480469 L 454.078125 393.480469 L 454.078125 210.578125 C 488.601562 191.390625 512 154.539062 512 112.328125 C 512 50.390625 461.609375 0 399.671875 0 Z M 288.328125 127.328125 C 291.480469 150.859375 301.949219 172.109375 317.378906 188.710938 L 227.039062 259.558594 L 58.429688 127.328125 Z M 424.078125 363.480469 L 30 363.480469 L 30 143.160156 L 227.039062 297.679688 L 341.160156 208.191406 C 358.210938 218.640625 378.25 224.671875 399.671875 224.671875 C 408.050781 224.671875 416.21875 223.75 424.078125 221.988281 Z M 454.078125 174.058594 C 445.480469 181.671875 435.289062 187.488281 424.078125 190.96875 C 416.359375 193.378906 408.160156 194.671875 399.671875 194.671875 C 388.078125 194.671875 377.03125 192.261719 367.019531 187.910156 C 357.25 183.679688 348.460938 177.601562 341.089844 170.121094 C 329.738281 158.640625 321.75 143.839844 318.710938 127.328125 C 317.800781 122.460938 317.328125 117.449219 317.328125 112.328125 C 317.328125 107.210938 317.800781 102.199219 318.710938 97.328125 C 325.769531 59.070312 359.390625 30 399.671875 30 C 445.070312 30 482 66.929688 482 112.328125 C 482 136.890625 471.191406 158.96875 454.078125 174.058594 Z M 454.078125 174.058594 " style=" stroke:none;fill-rule:nonzero;fill:rgb(0%,0%,0%);fill-opacity:1;" />
<path d="M 414.917969 61.804688 L 384.917969 61.804688 L 384.917969 97.554688 L 349.167969 97.554688 L 349.167969 127.554688 L 384.917969 127.554688 L 384.917969 163.304688 L 414.917969 163.304688 L 414.917969 127.554688 L 450.667969 127.554688 L 450.667969 97.554688 L 414.917969 97.554688 Z M 414.917969 61.804688 " style=" stroke:none;fill-rule:nonzero;fill:rgb(0%,0%,0%);fill-opacity:1;" />
</g>
</svg>