<svg id="Capa_1" enable-background="new 0 0 512.01 512.01" height="512" viewBox="0 0 512.01 512.01" width="512" xmlns="http://www.w3.org/2000/svg"><g><path d="m103.24 134.67 109.26 72.84v118.18l70.91-70.91 132.93 88.62c4.362-15.465 91.595-324.743 95.67-339.19-12.886 4.112-393.396 125.553-408.77 130.46zm68.52 9.62 218.55-69.75-162.75 106.95zm70.74 63.28 133.28-87.58-133.28 133.28zm156.16 87.99-93.62-62.41 154.92-154.92z"/><path d="m120.491 367.137c-15.357-5.101-32.521-2.599-45.483 5.746-12.967-8.367-30.137-10.889-45.489-5.79-18.208 6.047-29.519 21.592-29.519 40.568 0 25.506 21.218 41.003 50.584 62.453 16.28 11.891 14.792 10.947 24.416 18.116 8.553-6.371 8.805-6.714 24.416-18.116 29.366-21.449 50.584-36.947 50.584-62.453 0-18.95-11.307-34.479-29.509-40.524zm-45.491 83.67c-25.063-18.406-45-31.783-45-43.146 0-2.255 0-9.117 8.976-12.098 7.862-2.612 18.775-.613 24.005 6.391l12.019 16.098 12.02-16.097c5.364-7.185 16.424-8.868 24.016-6.347 8.965 2.978 8.965 9.81 8.965 12.054-.001 11.613-21.187 25.656-45.001 43.145z"/><path d="m117.833 394.48h216.333v29.999h-216.333z" transform="matrix(.555 -.832 .832 .555 -240.07 370.385)"/><path d="m10.223 274.48h161.555v30h-161.555z" transform="matrix(.929 -.371 .371 .929 -101.007 54.506)"/></g></svg>