<?xml version="1.0"?>
<svg xmlns="http://www.w3.org/2000/svg" xmlns:xlink="http://www.w3.org/1999/xlink" version="1.1" id="layer_1" x="0px" y="0px" viewBox="0 0 32 32" style="enable-background:new 0 0 32 32" xml:space="preserve"><path d="M6.5039062,14.7822266h3.7744141c2.4833984,0,4.5039062-2.0205078,4.5039062-4.5039062V6.5039062  C14.7822266,4.0205078,12.7617188,2,10.2783203,2H6.5039062C4.0205078,2,2,4.0205078,2,6.5039062v3.7744141  C2,12.7617188,4.0205078,14.7822266,6.5039062,14.7822266z M4,6.5039062C4,5.1230469,5.1230469,4,6.5039062,4h3.7744141  c1.3808594,0,2.5039062,1.1230469,2.5039062,2.5039062v3.7744141c0,1.3808594-1.1230469,2.5039062-2.5039062,2.5039062H6.5039062  C5.1230469,12.7822266,4,11.6591797,4,10.2783203V6.5039062z"/><path d="M25.4960938,2h-3.7744141c-2.4833984,0-4.5039062,2.0205078-4.5039062,4.5039062v3.7744141  c0,2.4833984,2.0205078,4.5039062,4.5039062,4.5039062h3.7744141C27.9794922,14.7822266,30,12.7617188,30,10.2783203V6.5039062  C30,4.0205078,27.9794922,2,25.4960938,2z M28,10.2783203c0,1.3808594-1.1230469,2.5039062-2.5039062,2.5039062h-3.7744141  c-1.3808594,0-2.5039062-1.1230469-2.5039062-2.5039062V6.5039062C19.2177734,5.1230469,20.3408203,4,21.7216797,4h3.7744141  C26.8769531,4,28,5.1230469,28,6.5039062V10.2783203z"/><path d="M6.5039062,30h3.7744141c2.4833984,0,4.5039062-2.0205078,4.5039062-4.5039062v-3.7744141  c0-2.4833984-2.0205078-4.5039062-4.5039062-4.5039062H6.5039062C4.0205078,17.2177734,2,19.2382812,2,21.7216797v3.7744141  C2,27.9794922,4.0205078,30,6.5039062,30z M4,21.7216797c0-1.3808594,1.1230469-2.5039062,2.5039062-2.5039062h3.7744141  c1.3808594,0,2.5039062,1.1230469,2.5039062,2.5039062v3.7744141C12.7822266,26.8769531,11.6591797,28,10.2783203,28H6.5039062  C5.1230469,28,4,26.8769531,4,25.4960938V21.7216797z"/><path d="M23.609375,17.2177734c-3.5244141,0-6.3916016,2.8671875-6.3916016,6.3916016  C17.2177734,27.1328125,20.0849609,30,23.609375,30C27.1328125,30,30,27.1328125,30,23.609375  C30,20.0849609,27.1328125,17.2177734,23.609375,17.2177734z M23.609375,28c-2.4218864,0-4.3916016-1.9697266-4.3916016-4.390625  c0-2.421875,1.9697151-4.3916016,4.3916016-4.3916016C26.0302734,19.2177734,28,21.1875,28,23.609375  C28,26.0302734,26.0302734,28,23.609375,28z"/></svg>
