<svg height="511pt" viewBox="0 1 511 511.99919" width="511pt" xmlns="http://www.w3.org/2000/svg"><path d="m3.226562 133.105469 140.011719 140.011719-24.035156 120.1875 120.1875-24.039063 140.046875 140.050781 132.378906-509.316406zm58.160157 15.757812 359.011719-94.070312-259.457032 193.625zm174.332031 190.5625-78.296875 15.660157 15.664063-78.320313 244.890624-182.753906zm127.886719 111.65625-99.539063-99.539062 193.054688-259.953125zm0 0"/><path d="m21.699219 512-21.199219-21.203125 95.402344-95.402344 21.199218 21.203125zm0 0"/><path d="m159.519531 416.59375 21.203125 21.203125-74.203125 74.203125-21.203125-21.203125zm0 0"/><path d="m21.703125 427.195312-21.203125-21.199218 74.203125-74.203125 21.199219 21.199219zm0 0"/></svg>